# xmcd
#
# Track frame offsets: 
#        150
#        12850
#        22999
#        33101
#        42615
#        53409
#        65084
#        81138
#        93375
#        102218
#        113510
#        123029
#        139463
#        151973
#        172903
#        195552
#
# Disc length: 2729 seconds
#
# Revision: 1
# Processed by: cddbd v1.5.2PL0 Copyright (c) Steve Scherf et al.
# Submitted via: ExactAudioCopyFreeDBPlugin 1.0
#
DISCID=c00aa710
DTITLE=Johnny Cash - The Classic Christmas Album
DYEAR=2013
DGENRE=Christmas
TTITLE0=Christmas As I Knew It
TTITLE1=Christmas Time's A Comin' (with The Cash Family)
TTITLE2=That Christmasy Feeling (with Tommy Cash)
TTITLE3=Christmas With You (with June Carter Cash)
TTITLE4=Blue Christmas
TTITLE5=The Little Drummer Boy
TTITLE6=The Gifts They Gave
TTITLE7=The King Of Love (with The Carter Family and The Statler Broth
TTITLE7=ers)
TTITLE8=Merry Christmas Mary
TTITLE9=I Heard The Bells On Christmas Day
TTITLE10=Joy To The World
TTITLE11=It Came Upon A Midnight Clear
TTITLE12=Ringing The Bells For Jim
TTITLE13=The Christmas Guest
TTITLE14=The Christmas Spirit
TTITLE15=Silent Night (with The Cash Family)
EXTD=
EXTT0=
EXTT1=
EXTT2=
EXTT3=
EXTT4=
EXTT5=
EXTT6=
EXTT7=
EXTT8=
EXTT9=
EXTT10=
EXTT11=
EXTT12=
EXTT13=
EXTT14=
EXTT15=
PLAYORDER=
